<svg aria-hidden="true" style="position: absolute; width: 0; height: 0; overflow: hidden;" version="1.1" xmlns="http://www.w3.org/2000/svg" xmlns:xlink="http://www.w3.org/1999/xlink">
<defs>
<symbol id="angle" viewBox="0 0 19 32">
<path fill="none" stroke-linejoin="round" stroke-linecap="round" stroke-miterlimit="4" stroke-width="6.4" d="M3.2 3.2l12.8 12.8-12.8 12.8"></path>
</symbol>
<symbol id="burger" viewBox="0 0 46 32">
<path stroke-linejoin="miter" stroke-linecap="butt" stroke-miterlimit="4" stroke-width="2.2857" d="M0 2.286h45.714M0 16h45.714M0 29.714h45.714"></path>
</symbol>
<symbol id="close" viewBox="0 0 32 32">
<path fill="none"  stroke-linejoin="miter" stroke-linecap="butt" stroke-miterlimit="4" stroke-width="2" d="M2.52 2l26.96 28M2 29.48l28-26.96"></path>
</symbol>
<symbol id="home" viewBox="0 0 35 32">
<path d="M34.24 15.6c0.252-0.282 0.407-0.656 0.407-1.066 0-0.464-0.197-0.881-0.512-1.173l-0.001-0.001-14.773-12.933c-0.319-0.264-0.733-0.424-1.184-0.424-0.466 0-0.891 0.17-1.218 0.452l0.002-0.002-14.827 13.6c-0.314 0.289-0.51 0.701-0.51 1.159 0 0.419 0.164 0.799 0.43 1.081l-0.001-0.001 0.373 0.4c0.613 0.64 1.6 0.72 2.213 0.16l1.12-0.987v14.533c0 0.88 0.72 1.6 1.6 1.6h5.787c0.884 0 1.6-0.716 1.6-1.6v0-10.16h7.387v10.133c0 0.907 0.613 1.627 1.52 1.627h6.133c0.884 0 1.6-0.716 1.6-1.6v0-14.32l0.667 0.587c0.4 0.32 1.173 0.080 1.787-0.587l0.4-0.48z"></path>
</symbol>
<symbol id="quotes" viewBox="0 0 43 32">
<path d="M32.016 0c1.92 0 3.752 0.52 5.464 1.56 1.767 1.11 3.185 2.627 4.145 4.425l0.031 0.063c0.976 1.905 1.548 4.155 1.548 6.539 0 0.125-0.002 0.25-0.005 0.375l0-0.018c0 2.64-0.64 5.224-1.928 7.736-0.432 0.912-1.2 2.080-2.32 3.52-1.098 1.367-2.147 2.573-3.24 3.738l0.032-0.034-4.048 4.096-2.896-4.816c2.063-1.301 3.824-2.853 5.306-4.643l0.030-0.037c1.544-1.824 2.32-3.488 2.32-5.008 0-0.784-0.176-1.408-0.52-1.888-1.367 1.015-3.088 1.624-4.952 1.624-0.023 0-0.045-0-0.068-0l0.003 0c-1.424-0.010-2.739-0.47-3.811-1.245l0.019 0.013c-1.238-0.781-2.239-1.833-2.938-3.077l-0.022-0.043c-0.714-1.105-1.142-2.454-1.152-3.901v-0.003c0-1.52 0.448-2.968 1.352-4.36 0.863-1.39 2.005-2.527 3.356-3.359l0.044-0.025c1.204-0.762 2.667-1.219 4.236-1.232l0.004-0zM8.936 0c1.928 0 3.752 0.52 5.464 1.56 1.767 1.11 3.185 2.627 4.145 4.425l0.031 0.063c0.976 1.905 1.548 4.155 1.548 6.539 0 0.125-0.002 0.25-0.005 0.375l0-0.018c0 1.864-0.24 3.536-0.704 5.008-0.48 1.52-1.28 3.096-2.448 4.744-1.023 1.455-2.055 2.729-3.166 3.928l0.022-0.024c-0.992 1.088-2.704 2.88-5.144 5.4l-2.896-4.816c2.063-1.301 3.824-2.853 5.306-4.643l0.030-0.037c1.544-1.824 2.32-3.488 2.32-5.008 0-0.784-0.176-1.408-0.52-1.888-1.367 1.015-3.088 1.624-4.952 1.624-0.023 0-0.045-0-0.068-0l0.003 0c-1.424-0.010-2.739-0.47-3.811-1.245l0.019 0.013c-1.238-0.781-2.239-1.833-2.938-3.077l-0.022-0.043c-0.714-1.105-1.142-2.454-1.152-3.901v-0.003c0-1.52 0.432-2.968 1.28-4.36 0.867-1.391 2.015-2.528 3.371-3.359l0.045-0.025c1.204-0.762 2.667-1.219 4.236-1.232l0.004-0z"></path>
</symbol>
<symbol id="arrow-right" viewBox="0 0 32 32">
<path d="M19.414 27.414l10-10c0.781-0.781 0.781-2.047 0-2.828l-10-10c-0.781-0.781-2.047-0.781-2.828 0s-0.781 2.047 0 2.828l6.586 6.586h-19.172c-1.105 0-2 0.895-2 2s0.895 2 2 2h19.172l-6.586 6.586c-0.39 0.39-0.586 0.902-0.586 1.414s0.195 1.024 0.586 1.414c0.781 0.781 2.047 0.781 2.828 0z"></path>
</symbol>
<symbol id="facebook" viewBox="0 0 32 32">
<path d="M20.442 15.981h-2.607v9.619h-3.953v-9.619h-1.882v-3.388h1.882v-2.184c0-1.562 0.734-4.009 3.991-4.009l2.927 0.009v3.285h-2.127c-0.348 0-0.838 0.179-0.838 0.922v1.986h2.955l-0.348 3.379z"></path>
</symbol>
<symbol id="github" viewBox="0 0 32 32">
<path  d="M16 6.588c-5.176 0-9.412 4.235-9.412 9.412 0 4.414 3.096 8.414 7.209 9.412v-3.106c-0.156 0.037-0.335 0.059-0.519 0.059-0.865 0-1.619-0.474-2.016-1.177l-0.006-0.012c-0.216-0.376-0.593-0.753-0.988-0.734l-0.094-1.092c0.847-0.075 1.591 0.518 2.024 1.252 0.198 0.329 0.424 0.527 0.715 0.612 0.282 0.075 0.574 0.038 0.922-0.085 0.094-0.696 0.405-0.96 0.649-1.318v-0.009c-2.447-0.367-3.426-1.666-3.821-2.692-0.161-0.435-0.254-0.937-0.254-1.461 0-1.017 0.351-1.951 0.939-2.689l-0.007 0.009c0.019-0.019 0.047-0.075 0.038-0.113-0.424-1.261 0.094-2.306 0.104-2.409 0.48 0.141 0.565-0.151 2.089 0.781l0.264 0.16c0.113 0.066 0.075 0.028 0.188 0.019 0.64-0.169 1.318-0.264 1.976-0.282 0.668 0.019 1.336 0.113 2.005 0.282l0.085 0.019 0.075-0.038c1.911-1.158 1.845-0.781 2.353-0.941 0.019 0.104 0.518 1.167 0.104 2.409-0.056 0.169 1.656 1.732 0.715 4.254-0.395 1.026-1.365 2.325-3.821 2.692 0.311 0.48 0.696 0.734 0.687 1.722v3.887c4.113-0.998 7.209-4.998 7.209-9.412 0-5.176-4.235-9.412-9.412-9.412z"></path>
</symbol>
<symbol id="telegram" viewBox="0 0 32 32">
<path  d="M12.866 18.372l-0.32 4.169c0.461 0 0.659-0.179 0.894-0.395l2.127-1.901 4.424 3.012c0.8 0.424 1.374 0.207 1.591-0.687l2.889-12.687c0.254-1.12-0.433-1.553-1.224-1.28l-17.035 6.089c-1.158 0.414-1.139 1.026-0.188 1.299l4.348 1.261 10.118-5.901c0.471-0.301 0.904-0.132 0.546 0.16l-8.179 6.852z"></path>
</symbol>

<symbol id="icon-email" viewBox="0 0 18 18">
<path  d="M15 3H3C2.175 3 1.5075 3.675 1.5075 4.5L1.5 13.5C1.5 14.325 2.175 15 3 15H15C15.825 15 16.5 14.325 16.5 13.5V4.5C16.5 3.675 15.825 3 15 3ZM14.7 6.1875L9.3975 9.5025C9.1575 9.6525 8.8425 9.6525 8.6025 9.5025L3.3 6.1875C3.1125 6.0675 3 5.865 3 5.6475C3 5.145 3.5475 4.845 3.975 5.1075L9 8.25L14.025 5.1075C14.4525 4.845 15 5.145 15 5.6475C15 5.865 14.8875 6.0675 14.7 6.1875Z"></path>
</symbol>
<symbol id="icon-person" viewBox="0 0 18 18">
<path  d="M9 9C10.6575 9 12 7.6575 12 6C12 4.3425 10.6575 3 9 3C7.3425 3 6 4.3425 6 6C6 7.6575 7.3425 9 9 9ZM9 10.5C6.9975 10.5 3 11.505 3 13.5V14.25C3 14.6625 3.3375 15 3.75 15H14.25C14.6625 15 15 14.6625 15 14.25V13.5C15 11.505 11.0025 10.5 9 10.5Z"></path>
</symbol>
<symbol id="icon-phone" viewBox="0 0 18 18">
<path  d="M13.996 11.1226L12.1579 10.9127C11.7164 10.862 11.2822 11.014 10.971 11.3252L9.63945 12.6568C7.59144 11.6147 5.91251 9.94296 4.87041 7.8877L6.20922 6.54888C6.5204 6.2377 6.67237 5.80349 6.62171 5.36205L6.41185 3.53836C6.325 2.80745 5.70988 2.25745 4.97173 2.25745H3.71976C2.902 2.25745 2.22175 2.93771 2.2724 3.75547C2.65595 9.93572 7.59868 14.8712 13.7717 15.2548C14.5894 15.3054 15.2697 14.6252 15.2697 13.8074V12.5555C15.2769 11.8245 14.7269 11.2094 13.996 11.1226Z"></path>

</symbol>
<symbol id="play" viewBox="0 0 32 32">
<path d="M6 4l20 12-20 12z"></path>
</defs>
</svg>
